<mxfile host="Electron" agent="Mozilla/5.0 (X11; Linux x86_64) AppleWebKit/537.36 (KHTML, like Gecko) draw.io/24.7.5 Chrome/126.0.6478.183 Electron/31.3.0 Safari/537.36" version="24.7.5">
  <diagram name="Page-1" id="m8m3ZyoXTAU3OBZdbSL7">
    <mxGraphModel dx="2257" dy="843" grid="1" gridSize="10" guides="1" tooltips="1" connect="1" arrows="1" fold="1" page="1" pageScale="1" pageWidth="827" pageHeight="1169" math="0" shadow="0">
      <root>
        <mxCell id="0" />
        <mxCell id="1" parent="0" />
        <mxCell id="VEvJbcezbuQvwwDcVX_y-5" style="edgeStyle=orthogonalEdgeStyle;rounded=0;orthogonalLoop=1;jettySize=auto;html=1;exitX=0.5;exitY=0;exitDx=0;exitDy=0;entryX=0.75;entryY=1;entryDx=0;entryDy=0;strokeColor=#999999;" parent="1" source="VEvJbcezbuQvwwDcVX_y-2" target="VEvJbcezbuQvwwDcVX_y-4" edge="1">
          <mxGeometry relative="1" as="geometry" />
        </mxCell>
        <mxCell id="VEvJbcezbuQvwwDcVX_y-6" value="Authentication (OIDC Authorization Code Flow)" style="edgeLabel;html=1;align=center;verticalAlign=middle;resizable=0;points=[];" parent="VEvJbcezbuQvwwDcVX_y-5" vertex="1" connectable="0">
          <mxGeometry x="0.05" relative="1" as="geometry">
            <mxPoint as="offset" />
          </mxGeometry>
        </mxCell>
        <mxCell id="VEvJbcezbuQvwwDcVX_y-16" style="edgeStyle=orthogonalEdgeStyle;rounded=0;orthogonalLoop=1;jettySize=auto;html=1;exitX=0.5;exitY=1;exitDx=0;exitDy=0;entryX=0.5;entryY=0;entryDx=0;entryDy=0;strokeColor=#999999;" parent="1" source="VEvJbcezbuQvwwDcVX_y-2" target="VEvJbcezbuQvwwDcVX_y-3" edge="1">
          <mxGeometry relative="1" as="geometry" />
        </mxCell>
        <mxCell id="VEvJbcezbuQvwwDcVX_y-17" value="spawns" style="edgeLabel;html=1;align=center;verticalAlign=middle;resizable=0;points=[];" parent="VEvJbcezbuQvwwDcVX_y-16" vertex="1" connectable="0">
          <mxGeometry x="0.0133" y="-2" relative="1" as="geometry">
            <mxPoint as="offset" />
          </mxGeometry>
        </mxCell>
        <mxCell id="VEvJbcezbuQvwwDcVX_y-2" value="Jupyter Hub&lt;div&gt;&lt;span style=&quot;font-weight: normal;&quot;&gt;(services/naavre-jupyterhub)&lt;/span&gt;&lt;/div&gt;" style="whiteSpace=wrap;html=1;align=center;verticalAlign=middle;fontStyle=1;fillColor=#dae8fc;strokeColor=#6c8ebf;" parent="1" vertex="1">
          <mxGeometry x="40" y="200" width="680" height="40" as="geometry" />
        </mxCell>
        <mxCell id="VEvJbcezbuQvwwDcVX_y-3" value="&lt;b&gt;NaaVRE Jupyter Lab&lt;/b&gt;&lt;div&gt;(services/naavre-jupyterlab)&lt;/div&gt;" style="whiteSpace=wrap;html=1;align=center;verticalAlign=top;fillColor=#dae8fc;strokeColor=#6c8ebf;" parent="1" vertex="1">
          <mxGeometry x="40" y="280" width="600" height="340" as="geometry" />
        </mxCell>
        <mxCell id="VEvJbcezbuQvwwDcVX_y-114" value="" style="edgeStyle=orthogonalEdgeStyle;rounded=0;orthogonalLoop=1;jettySize=auto;html=1;strokeColor=#999999;" parent="1" source="VEvJbcezbuQvwwDcVX_y-4" target="VEvJbcezbuQvwwDcVX_y-113" edge="1">
          <mxGeometry relative="1" as="geometry" />
        </mxCell>
        <mxCell id="VEvJbcezbuQvwwDcVX_y-4" value="&lt;b&gt;Keycloak&lt;/b&gt;&lt;div&gt;(&lt;span style=&quot;background-color: initial;&quot;&gt;services/keycloak)&lt;/span&gt;&lt;/div&gt;" style="whiteSpace=wrap;html=1;align=center;verticalAlign=middle;fillColor=#dae8fc;strokeColor=#6c8ebf;" parent="1" vertex="1">
          <mxGeometry x="-150" y="90" width="300" height="40" as="geometry" />
        </mxCell>
        <mxCell id="lBghHmk0wAgTuMnPaWjG-2" style="edgeStyle=orthogonalEdgeStyle;rounded=0;orthogonalLoop=1;jettySize=auto;html=1;exitX=0;exitY=0.75;exitDx=0;exitDy=0;entryX=1;entryY=0.75;entryDx=0;entryDy=0;" parent="1" source="VEvJbcezbuQvwwDcVX_y-18" target="VEvJbcezbuQvwwDcVX_y-50" edge="1">
          <mxGeometry relative="1" as="geometry" />
        </mxCell>
        <mxCell id="lBghHmk0wAgTuMnPaWjG-6" value="&lt;div&gt;&lt;i&gt;query&lt;/i&gt;&lt;/div&gt;ðŸ”’ access_token" style="edgeLabel;html=1;align=center;verticalAlign=middle;resizable=0;points=[];" parent="lBghHmk0wAgTuMnPaWjG-2" vertex="1" connectable="0">
          <mxGeometry x="0.0692" y="2" relative="1" as="geometry">
            <mxPoint x="6" y="-2" as="offset" />
          </mxGeometry>
        </mxCell>
        <mxCell id="lBghHmk0wAgTuMnPaWjG-3" style="edgeStyle=orthogonalEdgeStyle;rounded=0;orthogonalLoop=1;jettySize=auto;html=1;exitX=0;exitY=0.25;exitDx=0;exitDy=0;entryX=0.5;entryY=1;entryDx=0;entryDy=0;" parent="1" source="VEvJbcezbuQvwwDcVX_y-18" target="VEvJbcezbuQvwwDcVX_y-4" edge="1">
          <mxGeometry relative="1" as="geometry" />
        </mxCell>
        <mxCell id="lBghHmk0wAgTuMnPaWjG-7" value="access token renewal&lt;div&gt;ðŸ”’ refresh_token&lt;br&gt;&lt;/div&gt;" style="edgeLabel;html=1;align=center;verticalAlign=middle;resizable=0;points=[];" parent="lBghHmk0wAgTuMnPaWjG-3" vertex="1" connectable="0">
          <mxGeometry x="0.1613" y="1" relative="1" as="geometry">
            <mxPoint as="offset" />
          </mxGeometry>
        </mxCell>
        <mxCell id="VEvJbcezbuQvwwDcVX_y-18" value="&lt;b&gt;naavre-communicator (backend)&lt;/b&gt;&lt;div&gt;(./NaaVRE-jupyterlab/extensions/naavre-communicator)&lt;/div&gt;&lt;div&gt;&lt;br&gt;&lt;/div&gt;&lt;div style=&quot;text-align: left;&quot;&gt;- validates domain ($NAAVRE_ALLOWED_DOMAINS)&lt;/div&gt;&lt;div style=&quot;text-align: left;&quot;&gt;- renews access_token if needed&lt;/div&gt;&lt;div style=&quot;text-align: left;&quot;&gt;- adds access token to query&lt;/div&gt;" style="whiteSpace=wrap;html=1;verticalAlign=top;" parent="1" vertex="1">
          <mxGeometry x="60" y="360" width="320" height="120" as="geometry" />
        </mxCell>
        <mxCell id="lBghHmk0wAgTuMnPaWjG-1" style="edgeStyle=orthogonalEdgeStyle;rounded=0;orthogonalLoop=1;jettySize=auto;html=1;exitX=1;exitY=0.5;exitDx=0;exitDy=0;entryX=1;entryY=0.5;entryDx=0;entryDy=0;" parent="1" source="VEvJbcezbuQvwwDcVX_y-25" target="VEvJbcezbuQvwwDcVX_y-18" edge="1">
          <mxGeometry relative="1" as="geometry">
            <Array as="points">
              <mxPoint x="390" y="560" />
              <mxPoint x="390" y="420" />
            </Array>
          </mxGeometry>
        </mxCell>
        <mxCell id="lBghHmk0wAgTuMnPaWjG-4" value="&lt;div&gt;POST /naavre-communicator/external-service&lt;/div&gt;&lt;div&gt;&lt;div&gt;&lt;br&gt;&lt;/div&gt;&lt;div&gt;{&lt;/div&gt;&lt;div&gt;&amp;nbsp; &quot;query&quot;: {&lt;/div&gt;&lt;div&gt;&amp;nbsp; &amp;nbsp; &quot;method&quot;: &quot;GET&quot;,&lt;/div&gt;&lt;div&gt;&amp;nbsp; &amp;nbsp; &quot;url&quot;: &quot;https://external.naavre/path&quot;,&lt;/div&gt;&lt;div&gt;&amp;nbsp; &amp;nbsp; &quot;headers&quot;: {},&lt;/div&gt;&lt;div&gt;&amp;nbsp; &amp;nbsp; &quot;data&quot;: {}&lt;/div&gt;&lt;div&gt;&amp;nbsp; }&lt;/div&gt;&lt;div&gt;}&lt;/div&gt;&lt;/div&gt;&lt;div&gt;&lt;br&gt;&lt;/div&gt;ðŸ”’&amp;nbsp;Internal Jupyter auth" style="edgeLabel;html=1;align=left;verticalAlign=middle;resizable=0;points=[];" parent="lBghHmk0wAgTuMnPaWjG-1" vertex="1" connectable="0">
          <mxGeometry x="-0.1571" relative="1" as="geometry">
            <mxPoint x="10" y="-14" as="offset" />
          </mxGeometry>
        </mxCell>
        <mxCell id="VEvJbcezbuQvwwDcVX_y-25" value="&lt;b&gt;NaaVRE jupyter extension (frontend)&lt;/b&gt;&lt;div&gt;(&lt;span style=&quot;background-color: initial;&quot;&gt;./NaaVRE-jupyterlab/extensions/demo-auth)&lt;/span&gt;&lt;/div&gt;" style="whiteSpace=wrap;html=1;verticalAlign=top;labelBackgroundColor=none;labelBorderColor=none;textShadow=0;" parent="1" vertex="1">
          <mxGeometry x="60" y="520" width="320" height="80" as="geometry" />
        </mxCell>
        <mxCell id="lBghHmk0wAgTuMnPaWjG-10" style="edgeStyle=orthogonalEdgeStyle;rounded=0;orthogonalLoop=1;jettySize=auto;html=1;exitX=1;exitY=0.25;exitDx=0;exitDy=0;" parent="1" source="VEvJbcezbuQvwwDcVX_y-50" edge="1">
          <mxGeometry relative="1" as="geometry">
            <mxPoint x="-120" y="130" as="targetPoint" />
            <Array as="points">
              <mxPoint x="-120" y="420" />
              <mxPoint x="-120" y="130" />
            </Array>
          </mxGeometry>
        </mxCell>
        <mxCell id="lBghHmk0wAgTuMnPaWjG-11" value="access_token validation&lt;div&gt;(JWKS)&lt;/div&gt;" style="edgeLabel;html=1;align=center;verticalAlign=middle;resizable=0;points=[];" parent="lBghHmk0wAgTuMnPaWjG-10" vertex="1" connectable="0">
          <mxGeometry x="-0.0217" y="2" relative="1" as="geometry">
            <mxPoint y="17" as="offset" />
          </mxGeometry>
        </mxCell>
        <mxCell id="eqK7lNB05tXLMrj4xaNU-7" style="edgeStyle=orthogonalEdgeStyle;rounded=0;orthogonalLoop=1;jettySize=auto;html=1;exitX=0.5;exitY=1;exitDx=0;exitDy=0;entryX=0.5;entryY=0;entryDx=0;entryDy=0;" edge="1" parent="1" source="VEvJbcezbuQvwwDcVX_y-50" target="eqK7lNB05tXLMrj4xaNU-5">
          <mxGeometry relative="1" as="geometry" />
        </mxCell>
        <mxCell id="VEvJbcezbuQvwwDcVX_y-50" value="&lt;b&gt;External NaaVRE service&lt;/b&gt;&lt;div&gt;(services/demo-oauth-service)&lt;/div&gt;" style="whiteSpace=wrap;html=1;align=center;verticalAlign=top;fillColor=#dae8fc;strokeColor=#6c8ebf;" parent="1" vertex="1">
          <mxGeometry x="-310" y="390" width="210" height="80" as="geometry" />
        </mxCell>
        <mxCell id="VEvJbcezbuQvwwDcVX_y-113" value="&lt;b&gt;LifeWatch AAI&lt;br&gt;&lt;/b&gt;" style="whiteSpace=wrap;html=1;align=center;verticalAlign=middle;fillColor=#e1d5e7;strokeColor=#9673a6;gradientDirection=east;" parent="1" vertex="1">
          <mxGeometry x="-150" y="30" width="300" height="40" as="geometry" />
        </mxCell>
        <mxCell id="VEvJbcezbuQvwwDcVX_y-115" value="&lt;b&gt;Google&lt;br&gt;&lt;/b&gt;" style="whiteSpace=wrap;html=1;align=center;verticalAlign=middle;fillColor=#e1d5e7;strokeColor=#9673a6;gradientDirection=east;" parent="1" vertex="1">
          <mxGeometry x="160" y="30" width="90" height="40" as="geometry" />
        </mxCell>
        <mxCell id="VEvJbcezbuQvwwDcVX_y-116" value="&lt;b&gt;EGI federation&lt;br&gt;&lt;/b&gt;" style="whiteSpace=wrap;html=1;align=center;verticalAlign=middle;fillColor=#e1d5e7;strokeColor=#9673a6;gradientDirection=east;" parent="1" vertex="1">
          <mxGeometry x="260" y="30" width="90" height="40" as="geometry" />
        </mxCell>
        <mxCell id="VEvJbcezbuQvwwDcVX_y-131" value="&lt;b&gt;...&lt;/b&gt;" style="whiteSpace=wrap;html=1;align=center;verticalAlign=middle;fillColor=#dae8fc;strokeColor=#6c8ebf;" parent="1" vertex="1">
          <mxGeometry x="660" y="280" width="60" height="340" as="geometry" />
        </mxCell>
        <mxCell id="lBghHmk0wAgTuMnPaWjG-8" style="edgeStyle=orthogonalEdgeStyle;rounded=0;orthogonalLoop=1;jettySize=auto;html=1;exitX=0.25;exitY=1;exitDx=0;exitDy=0;entryX=0.25;entryY=0;entryDx=0;entryDy=0;" parent="1" source="VEvJbcezbuQvwwDcVX_y-2" target="VEvJbcezbuQvwwDcVX_y-18" edge="1">
          <mxGeometry relative="1" as="geometry" />
        </mxCell>
        <mxCell id="lBghHmk0wAgTuMnPaWjG-9" value="&lt;div&gt;initialized with&lt;/div&gt;access_token&lt;div&gt;refresh_token&lt;/div&gt;" style="edgeLabel;html=1;align=center;verticalAlign=middle;resizable=0;points=[];" parent="lBghHmk0wAgTuMnPaWjG-8" vertex="1" connectable="0">
          <mxGeometry x="0.1647" y="5" relative="1" as="geometry">
            <mxPoint x="1" y="5" as="offset" />
          </mxGeometry>
        </mxCell>
        <mxCell id="eqK7lNB05tXLMrj4xaNU-1" value="JL extension (frontend)" style="shape=note;strokeWidth=2;fontSize=14;size=20;whiteSpace=wrap;html=1;fillColor=#fff2cc;strokeColor=#d6b656;fontColor=#666600;align=left;spacingLeft=3.937;" vertex="1" parent="1">
          <mxGeometry x="204" y="566" width="172" height="30" as="geometry" />
        </mxCell>
        <mxCell id="eqK7lNB05tXLMrj4xaNU-4" value="external service" style="shape=note;strokeWidth=2;fontSize=14;size=20;whiteSpace=wrap;html=1;fillColor=#fff2cc;strokeColor=#d6b656;fontColor=#666600;align=left;spacingLeft=3.937;" vertex="1" parent="1">
          <mxGeometry x="-230" y="436" width="126" height="30" as="geometry" />
        </mxCell>
        <mxCell id="eqK7lNB05tXLMrj4xaNU-5" value="&lt;b&gt;Third-party serrvice&lt;/b&gt;&lt;div&gt;(eg. argo workflows)&lt;/div&gt;" style="whiteSpace=wrap;html=1;align=center;verticalAlign=top;fillColor=#dae8fc;strokeColor=#6c8ebf;" vertex="1" parent="1">
          <mxGeometry x="-310" y="520" width="210" height="80" as="geometry" />
        </mxCell>
        <mxCell id="eqK7lNB05tXLMrj4xaNU-6" value="third-party service" style="shape=note;strokeWidth=2;fontSize=14;size=20;whiteSpace=wrap;html=1;fillColor=#fff2cc;strokeColor=#d6b656;fontColor=#666600;align=left;spacingLeft=3.937;" vertex="1" parent="1">
          <mxGeometry x="-250" y="566" width="146" height="30" as="geometry" />
        </mxCell>
      </root>
    </mxGraphModel>
  </diagram>
</mxfile>
